<svg width="12" height="11" viewBox="0 0 12 11" fill="none" xmlns="http://www.w3.org/2000/svg">
<rect width="12" height="11" fill="#E5E5E5"/>
<g id="Home" clip-path="url(#clip0_89_1)">
<rect width="375" height="812" transform="translate(-348 -121)" fill="white"/>
<g id="Frame 40">
<g id="Component/Link">
<path id="Combined Shape" d="M0 5.4999C0 5.22376 0.205203 4.99554 0.47144 4.95942L0.545455 4.95444L10.1338 4.95488L6.66983 1.50504C6.45636 1.29249 6.45561 0.947125 6.66817 0.733654C6.8614 0.539589 7.16439 0.521332 7.37826 0.679312L7.43955 0.731993L11.8396 5.11308C11.8677 5.1411 11.8921 5.17142 11.9129 5.20345C11.9187 5.21308 11.9247 5.22295 11.9304 5.233C11.9356 5.24163 11.9403 5.25058 11.9447 5.25963C11.9508 5.2728 11.9569 5.28641 11.9623 5.30029C11.9668 5.311 11.9705 5.32141 11.9738 5.3319C11.9779 5.34492 11.9818 5.35879 11.9851 5.37287C11.9876 5.3827 11.9896 5.39216 11.9913 5.40165C11.9938 5.41579 11.9958 5.43041 11.9973 5.44521C11.9986 5.45649 11.9993 5.46768 11.9998 5.47887C11.9999 5.48566 12 5.49276 12 5.4999L11.9997 5.52103C11.9993 5.53173 11.9986 5.54243 11.9975 5.5531L12 5.4999C12 5.53432 11.9968 5.568 11.9907 5.60065C11.9893 5.60845 11.9876 5.61645 11.9858 5.62442C11.9819 5.64084 11.9774 5.65666 11.9722 5.67216C11.9697 5.67986 11.9668 5.68809 11.9636 5.69626C11.9572 5.71267 11.9503 5.72832 11.9427 5.74356C11.9391 5.75072 11.9352 5.75822 11.931 5.76565C11.9242 5.77776 11.9172 5.78928 11.9098 5.8005C11.9045 5.80844 11.8987 5.81671 11.8927 5.82485L11.8879 5.83113C11.8733 5.85033 11.8573 5.86853 11.8402 5.88559L11.8396 5.8861L7.43959 10.2679C7.22613 10.4805 6.88077 10.4798 6.6682 10.2663C6.47495 10.0723 6.45797 9.76921 6.61686 9.556L6.6698 9.49493L10.1324 6.04579L0.545455 6.04535C0.244208 6.04535 0 5.80115 0 5.4999Z" fill="#0080FF"/>
</g>
</g>
</g>
<defs>
<clipPath id="clip0_89_1">
<rect width="375" height="812" fill="white" transform="translate(-348 -121)"/>
</clipPath>
</defs>
</svg>
