<svg width="23" height="19" viewBox="0 0 23 19" fill="none" xmlns="http://www.w3.org/2000/svg">
<path d="M18.243 1.75698C19.705 3.22298 20.255 5.24998 19.893 7.13698C20.461 7.29698 20.999 7.59998 21.447 8.04498C22.851 9.43898 22.851 11.699 21.447 13.092L16 18.5L12.978 15.5L10 18.485L1.52002 9.99298C-0.582977 7.63698 -0.503977 4.01898 1.75702 1.75698C4.02202 -0.50702 7.64502 -0.58302 10.001 1.52898C12.35 -0.58002 15.98 -0.51002 18.243 1.75698ZM11.962 9.46498C11.346 10.076 11.346 11.062 11.962 11.673L16 15.682L20.038 11.673C20.654 11.062 20.654 10.076 20.038 9.46498C19.414 8.84498 18.396 8.84498 17.77 9.46698L15.998 11.221L14.591 9.82498L14.228 9.46498C13.604 8.84498 12.586 8.84498 11.962 9.46498ZM3.17202 3.17198C1.68202 4.66198 1.60702 7.04698 2.98002 8.62298L10 15.654L11.559 14.092L10.553 13.092C9.14902 11.699 9.14902 9.43898 10.553 8.04498C11.957 6.65198 14.233 6.65198 15.637 8.04498L16 8.40498L16.363 8.04498C16.788 7.62398 17.293 7.32998 17.828 7.16298C18.244 5.79598 17.906 4.25098 16.827 3.16998C15.327 1.66798 12.907 1.60698 11.337 3.01698L10.002 4.21498L8.66602 3.01798C7.09102 1.60598 4.67602 1.66798 3.17202 3.17198Z" fill="white"/>
</svg>
